<svg width="2578" height="2578" viewBox="0 0 2578 2578" fill="none" xmlns="http://www.w3.org/2000/svg">
<path d="M1328.93 2041.95C1713.21 1912.33 1906.51 1456.79 1760.68 1024.47C1614.86 592.15 1185.13 346.762 800.856 476.38C416.584 605.999 223.285 1061.54 369.11 1493.86C514.935 1926.18 944.663 2171.56 1328.93 2041.95Z" fill="#1A546B"/>
<path d="M1802.56 2315.48C1976.04 2315.48 2116.67 2289.4 2116.67 2257.23C2116.67 2225.06 1976.04 2198.98 1802.56 2198.98C1629.09 2198.98 1488.46 2225.06 1488.46 2257.23C1488.46 2289.4 1629.09 2315.48 1802.56 2315.48Z" fill="#3B3B3B"/>
<path d="M1482.32 1618.31H303.745C274.82 1618.31 251.37 1594.86 251.37 1565.94V825.032C251.37 796.107 274.82 772.658 303.745 772.658H1482.32C1511.24 772.658 1534.69 796.107 1534.69 825.032V1565.94C1534.69 1594.86 1511.24 1618.31 1482.32 1618.31Z" fill="#D3DDF7"/>
<path d="M1482.32 772.658H303.745C274.82 772.658 251.37 796.107 251.37 825.032V876.51H1534.69V825.032C1534.69 796.107 1511.24 772.658 1482.32 772.658Z" fill="#66A5BA"/>
<path d="M1321.82 844.78C1332.07 844.78 1340.37 836.476 1340.37 826.234C1340.37 815.991 1332.07 807.687 1321.82 807.687C1311.58 807.687 1303.28 815.991 1303.28 826.234C1303.28 836.476 1311.58 844.78 1321.82 844.78Z" stroke="black" stroke-miterlimit="10" stroke-linejoin="round"/>
<path d="M1391.17 844.78C1401.41 844.78 1409.71 836.476 1409.71 826.234C1409.71 815.991 1401.41 807.687 1391.17 807.687C1380.92 807.687 1372.62 815.991 1372.62 826.234C1372.62 836.476 1380.92 844.78 1391.17 844.78Z" stroke="black" stroke-miterlimit="10" stroke-linejoin="round"/>
<path d="M1460.51 844.78C1470.76 844.78 1479.06 836.476 1479.06 826.234C1479.06 815.991 1470.76 807.687 1460.51 807.687C1450.27 807.687 1441.97 815.991 1441.97 826.234C1441.97 836.476 1450.27 844.78 1460.51 844.78Z" stroke="black" stroke-miterlimit="10" stroke-linejoin="round"/>
<path d="M777.592 1031.84C762.964 1031.84 748.806 1022.07 737.576 1012.7L723.902 1001.29C715.447 994.232 705.398 990.452 695.101 990.452H578.447C567.861 990.452 559.282 999.032 559.282 1009.62V1031.84V1439.28C559.282 1453.49 570.8 1465.01 585.005 1465.01H1173.86C1188.07 1465.01 1199.58 1453.49 1199.58 1439.28V1057.57C1199.58 1043.36 1188.07 1031.85 1173.86 1031.85H777.592V1031.84Z" fill="#E6BB88" fill-opacity="0.81"/>
<path d="M1152.69 1114.27H986.111C978.686 1114.27 972.664 1108.25 972.664 1100.82C972.664 1093.4 978.686 1087.37 986.111 1087.37H1152.69C1160.12 1087.37 1166.14 1093.4 1166.14 1100.82C1166.14 1108.25 1160.12 1114.27 1152.69 1114.27Z" fill="#E6BB88" fill-opacity="0.81" stroke="black" stroke-miterlimit="10"/>
<path d="M2145.53 999.748C2145.53 999.748 2175.1 1069.3 2178.92 1089.48C2190.6 1151.25 2246.11 1321.12 2264.89 1342.41C2264.89 1342.41 2299.95 1346.17 2317.48 1336.15C2317.48 1336.15 2273.65 1058.18 2254.87 1020.62C2236.09 983.058 2223.57 921.702 2223.57 921.702L2145.53 999.748Z" fill="#F5D7C4"/>
<path d="M2313.2 1326.48C2293.81 1310.35 2254.68 1319.93 2247.86 1344.22C2242.31 1363.98 2242.11 1375.12 2241.61 1378.49C2240.62 1385.09 2216.63 1425.9 2221.23 1434.28C2224.55 1440.34 2241.52 1421.28 2250.01 1407.91C2251.76 1405.15 2255.98 1406.21 2256.27 1409.45C2257.88 1427.61 2261.45 1463.94 2264.58 1468.45C2268.77 1474.5 2284.02 1500.12 2288.54 1497.34C2293.06 1494.56 2287.99 1476.73 2284.02 1464.79C2280.05 1452.86 2284.93 1426.3 2284.93 1426.3C2284.93 1426.3 2305.07 1486.91 2313.6 1497.85C2326.3 1514.16 2330.53 1487.55 2330.53 1487.55C2338.15 1495.88 2345.55 1476.04 2344.23 1469.81C2341.63 1457.49 2322.55 1413.85 2325.92 1415.45C2329.3 1417.05 2350.83 1463.14 2360.6 1464.49C2370.37 1465.84 2365.63 1449.2 2360.15 1438.19C2354.67 1427.18 2339.83 1395.48 2339.83 1395.48C2339.83 1395.48 2334.86 1365.46 2316.41 1333.2C2316.26 1332.94 2313.43 1326.67 2313.2 1326.48Z" fill="#F5D7C4"/>
<path d="M2330.13 1486.08L2303.69 1424.62" stroke="black" stroke-miterlimit="10" stroke-linecap="round"/>
<path d="M2131.58 883.924L1854.85 872.622V464.293L2000.51 443.261L2131.58 883.924Z" fill="#E0DC92"/>
<path d="M1996.19 439.791C1996.19 439.791 2050.27 566.918 2096.62 738.288" stroke="black" stroke-miterlimit="10" stroke-linecap="round"/>
<path d="M1506.66 947.229C1506.66 947.229 1571.77 976.17 1722.81 862.217L1658.59 790.771L1506.66 947.229Z" fill="#F5D7C4"/>
<path d="M1981.01 659.638C1983.76 659.158 2000.68 675.003 2003.68 676.833C2032.49 694.431 2056.38 696.988 2088.9 703.17C2153.04 715.364 2198.26 817.602 2204.78 838.959C2212.49 864.197 2225.87 907.6 2233.58 932.839C2233.58 932.839 2220.94 1003.07 2139.72 1001.5L2099.03 914.674C2099.03 914.674 2052.9 1018.68 2050.19 1026.82C2047.48 1034.96 2078.23 1136.25 2078.23 1136.25C2078.23 1136.25 1835.86 1229.4 1694.77 1179.21C1694.77 1179.21 1742.62 996.366 1729.77 990.432C1717.59 984.811 1692.31 962.806 1722.81 862.222C1722.81 862.222 1671.71 832.379 1659.5 753.694C1659.5 753.694 1725.97 692.198 1768.02 690.837C1810.07 689.481 1980.94 659.648 1981.01 659.638Z" fill="#66A5BA"/>
<path d="M1879.26 729.502C1879.26 729.502 1896.9 776.303 1950.48 749.853C1994.62 728.063 2009.28 692.528 2013.08 680.654C1994.67 670.141 1981 659.638 1981 659.638C1981 659.638 1905.89 672.75 1843 681.989C1839.59 689.048 1809.23 755.199 1879.26 729.502Z" fill="white"/>
<path d="M1976.26 572.141L1981.01 659.638C1981.01 659.638 1940.31 721.36 1891.47 714.58L1881.98 658.963L1976.26 572.141Z" fill="#F5D7C4"/>
<path d="M1893.56 1585.73L1922.65 1952L1929 2191.21C1929 2191.21 1981.82 2225.37 2009.04 2175.32C2009.04 2175.32 2057.86 1927.06 2052.38 1841.71C2046.9 1756.37 2056.52 1655.91 2056.52 1655.91L1893.56 1585.73Z" fill="#F5D7C4"/>
<path d="M1686.97 2154.58C1686.97 2154.58 1537.78 2283 1551.21 2283C1564.63 2283 1628.04 2273.96 1669.07 2264.01C1710.1 2254.07 1726.51 2227.84 1726.51 2227.84L1729.49 2253.16L1757.84 2249.54C1757.84 2249.54 1789.92 2181.71 1767.54 2143.73C1745.16 2105.75 1686.97 2154.58 1686.97 2154.58Z" fill="black"/>
<path d="M1707.86 2234.17L1729.49 2253.16L1739.93 2221.06L1723.15 2216.99L1707.86 2234.17Z" fill="black"/>
<path d="M1928.8 2159.56C1928.8 2159.56 1873.08 2326.31 1891.88 2328.45C1927.68 2332.52 1971.14 2292.96 1984.56 2267.63C1997.99 2242.31 1996.5 2202.52 1996.5 2202.52L1983.82 2232.36H2009.93C2009.93 2232.36 2024.1 2218.8 2012.91 2153.68C2012.91 2153.68 1928.8 2236.2 1928.8 2159.56Z" fill="black"/>
<path d="M1698.16 1573.97L1686.97 2154.58C1686.97 2154.58 1738.44 2189.86 1767.53 2143.73C1767.53 2143.73 1825.72 1910.4 1823.48 1829C1821.24 1747.61 1834.67 1652.65 1834.67 1652.65L1698.16 1573.97Z" fill="#F5D7C4"/>
<path d="M1719.19 1069.32C1719.19 1069.32 1784.3 1188.7 2063.76 1085.6C2063.76 1085.6 2172.28 1367.77 2088.17 1682.5C2088.17 1682.5 1849.42 1793.74 1621.52 1660.79C1621.52 1660.79 1659.5 1270.1 1719.19 1069.32Z" fill="black"/>
<path d="M1722.81 670.491C1722.81 670.491 1516.15 816.097 1500.78 841.418C1485.4 866.739 1453.3 924.62 1498.51 946.327C1543.73 968.034 1723.25 770.425 1766.66 703.5L1722.81 670.491Z" fill="#F5D7C4"/>
<path d="M1536.5 939.093C1536.5 939.093 1600.94 904.048 1677.81 816.324" stroke="black" stroke-miterlimit="10" stroke-linecap="round"/>
<path d="M1733.51 992.767C1733.51 992.767 1904.59 1074.75 2010.4 984.311" stroke="black" stroke-miterlimit="10" stroke-linecap="round"/>
<path d="M2099.03 914.674L2062.21 856.984" stroke="black" stroke-miterlimit="10" stroke-linecap="round"/>
<path d="M1722.81 862.222L1743.6 820.619" stroke="black" stroke-miterlimit="10" stroke-linecap="round"/>
<path d="M1834.1 624.206C1822.48 623.097 1811.41 635.276 1806.98 633.889C1803.45 632.786 1798.7 616.07 1796.91 609.315C1803.63 570.099 1799.02 539.673 1789.82 547.825C1789.33 548.263 1788.76 549.176 1788.15 550.351C1786.8 537.91 1783.26 531.687 1778.48 535.93C1777.17 537.09 1775.31 541.442 1773.64 545.948C1772.2 534.229 1768.73 528.495 1764.09 532.61C1761.8 534.636 1757.86 546.34 1756.15 551.651C1755.24 550.532 1753.89 550.058 1752.19 549.49C1745.55 547.278 1730.24 604.649 1729.5 607.604C1728.76 610.558 1712.52 674.755 1712.52 674.755C1706.62 697.999 1753.01 708.666 1766.67 703.505C1780.32 698.339 1811.41 664.794 1811.41 664.794C1811.37 664.732 1811.32 664.675 1811.28 664.614C1812.35 663.062 1813.92 660.695 1816.11 657.137C1820.81 649.481 1844.61 630.295 1845.16 628.635C1845.71 626.975 1845.72 625.309 1834.1 624.206Z" fill="#DBC4B9"/>
<path d="M1845.17 628.63C1845.72 626.97 1845.72 625.309 1834.1 624.201C1822.48 623.092 1811.41 635.271 1806.98 633.884C1803.45 632.78 1798.7 616.065 1796.91 609.31C1803.63 570.094 1799.02 539.668 1789.82 547.82C1789.33 548.258 1788.76 549.171 1788.15 550.346C1786.8 537.905 1783.26 531.682 1778.48 535.925C1777.17 537.085 1775.31 541.437 1773.64 545.943C1772.97 540.462 1771.84 536.358 1770.36 533.888C1768.85 573.925 1773.28 634.626 1808.82 667.527C1810.43 665.841 1811.41 664.789 1811.41 664.789C1811.38 664.727 1811.32 664.67 1811.29 664.608C1812.36 663.056 1813.93 660.69 1816.11 657.132C1820.82 649.481 1844.62 630.29 1845.17 628.63Z" fill="black"/>
<path d="M1965.75 588.758L1976.26 572.141L1881.98 658.963L1889.17 701.092C1928.32 694.694 1946.65 631.44 1965.75 588.758Z" fill="black"/>
<path d="M1785.6 490.501L1786.09 490.587L1786.1 490.55L1786.1 490.512L1785.6 490.501ZM1785.6 490.501C1786.1 490.512 1786.1 490.512 1786.1 490.511L1786.1 490.509L1786.1 490.5L1786.1 490.459C1786.1 490.423 1786.1 490.368 1786.11 490.295C1786.11 490.15 1786.12 489.932 1786.14 489.647C1786.18 489.079 1786.24 488.243 1786.36 487.181C1786.6 485.056 1787.04 482.029 1787.87 478.424C1789.54 471.214 1792.77 461.708 1799 452.512C1805.22 443.32 1814.45 434.432 1828.14 428.448C1841.83 422.463 1860.02 419.37 1884.16 421.815L1884.21 421.388L1884.16 421.815C1916.85 425.122 1939.25 433.707 1953.46 447.993C1967.66 462.268 1973.77 482.32 1973.67 508.756C1973.57 535.203 1965.44 586.194 1945.88 626.553C1936.09 646.732 1923.47 664.203 1907.61 674.639C1891.78 685.058 1872.68 688.49 1849.83 680.537C1804.15 664.634 1788.17 617.292 1783.65 573.698C1781.39 551.925 1782 531.144 1783.18 515.804C1783.77 508.135 1784.5 501.828 1785.08 497.439C1785.37 495.245 1785.62 493.53 1785.8 492.365C1785.89 491.783 1785.97 491.337 1786.02 491.038C1786.04 490.889 1786.06 490.775 1786.07 490.7L1786.09 490.615L1786.09 490.594L1786.09 490.589C1786.09 490.588 1786.09 490.587 1785.6 490.501Z" fill="#F5D7C4" stroke="black"/>
<path d="M1994.59 429.33C1975.78 402.111 1948.14 387.138 1878.85 388.396C1826.1 389.355 1792.99 424.576 1781.74 442.859C1778.1 448.783 1769.09 465.525 1786.44 483.499C1786.44 483.499 1787.01 470.789 1798.74 456.636C1798.74 456.636 1908.5 516.126 1952.36 507.392L1962.82 548.521C1962.82 548.521 1977.66 527.464 1992.9 520.653C1992.9 520.653 2013.41 456.553 1994.59 429.33Z" fill="#DCDE7D"/>
<path d="M2012.01 560.21C2004.87 580.901 1987.4 593.749 1972.98 588.908C1958.56 584.072 1952.67 563.375 1959.81 542.684C1966.95 521.993 1984.43 509.145 1998.84 513.986C2013.25 518.822 2019.15 539.519 2012.01 560.21Z" fill="#F5D7C4"/>
<path d="M1876.54 558.482C1876.45 563.922 1873.58 568.299 1870.12 568.248C1866.66 568.202 1863.93 563.747 1864.01 558.307C1864.1 552.862 1866.97 548.49 1870.43 548.542C1873.89 548.588 1876.62 553.038 1876.54 558.482Z" fill="black"/>
<path d="M1804.03 558.256C1804.23 563.376 1801.86 567.629 1798.74 567.758C1795.62 567.887 1792.92 563.845 1792.72 558.725C1792.52 553.605 1794.89 549.351 1798.01 549.222C1801.12 549.088 1803.82 553.136 1804.03 558.256Z" fill="black"/>
<path d="M1899.94 516.848C1899.94 516.848 1874.8 520.555 1874.67 496.92" stroke="black" stroke-miterlimit="10" stroke-linecap="round"/>
<path d="M1816.03 509.464C1816.03 509.464 1808.29 530.918 1790.47 517.049" stroke="black" stroke-miterlimit="10" stroke-linecap="round"/>
<path d="M1875.2 646.217C1875.2 646.217 1885.54 613.43 1909.68 634.178L1875.2 646.217Z" fill="black"/>
<path d="M1998.48 549.911C1998.48 549.911 1982.9 534.649 1972.21 560.017C1972.21 560.017 1981.18 570.87 1974.58 578.501C1974.58 578.501 1983.94 581.275 1989.17 573.2" stroke="black" stroke-miterlimit="10" stroke-linecap="round" stroke-linejoin="round"/>
<path d="M1990.7 550.377C1990.7 550.377 1990.15 544.551 1984.17 537.554" stroke="black" stroke-miterlimit="10" stroke-linecap="round" stroke-linejoin="round"/>
<path d="M1813.5 578.508C1810.15 582.241 1809.2 586.892 1810.44 592.063C1811.66 597.173 1816.56 600.545 1821.74 600.777" stroke="black" stroke-miterlimit="10" stroke-linecap="round"/>
<path d="M1984.4 588.923C1984.4 596.699 1978.09 602.999 1970.32 602.999C1962.54 602.999 1956.24 596.699 1956.24 588.923C1956.24 581.148 1962.54 574.848 1970.32 574.848C1978.09 574.848 1984.4 581.153 1984.4 588.923Z" fill="white"/>
<path d="M1748.13 694.003C1748.13 694.003 1753.55 705.758 1766.67 703.5" stroke="black" stroke-miterlimit="10" stroke-linecap="round"/>
<path d="M1756.15 551.651C1756.15 551.651 1765.99 556.879 1750.05 613.177C1750.05 613.177 1759.89 648.79 1757.17 655.57C1754.46 662.35 1740.89 673.657 1736.82 674.111" stroke="black" stroke-miterlimit="10" stroke-linecap="round"/>
<path d="M1783.85 638.385C1783.85 638.385 1770.29 653.76 1769.83 675.013" stroke="black" stroke-miterlimit="10" stroke-linecap="round"/>
<path d="M1773.64 545.948C1773.64 545.948 1776.84 589.099 1770.05 612.497" stroke="black" stroke-miterlimit="10" stroke-linecap="round"/>
<path d="M1343.21 2347.07C1343.21 2367.1 1296.53 2383.34 1238.96 2383.34C1181.38 2383.34 1134.7 2367.1 1134.7 2347.07C1134.7 2327.04 1181.38 2310.8 1238.96 2310.8C1296.54 2310.8 1343.21 2327.04 1343.21 2347.07Z" fill="#3B3B3B"/>
<path d="M1236.62 1807.53C1236.62 1807.53 1205.09 1810.48 1215.82 1728.85C1226.01 1651.31 1265.11 1594.78 1268.09 1594.55C1268.09 1594.55 1324.31 1675.19 1289.07 1745.13C1253.84 1815.07 1236.62 1807.53 1236.62 1807.53Z" fill="#2A9D90"/>
<path d="M1494.67 1689.52C1494.67 1689.52 1422.46 1776.07 1246.7 1837.05C1246.7 1837.05 1245.61 1813.98 1306.4 1758.13C1367.18 1702.29 1503.08 1663.03 1494.67 1689.52Z" fill="#2A9D90"/>
<path d="M1494.67 1689.52C1494.67 1689.52 1356.97 1711.13 1246.7 1837.05C1246.7 1837.05 1235.86 1850.82 1234.52 1880.45" stroke="black" stroke-miterlimit="10" stroke-linecap="round"/>
<path d="M976.459 1857.06C976.459 1857.06 1048.67 1943.61 1224.44 2004.59C1224.44 2004.59 1225.52 1981.52 1164.74 1925.67C1103.96 1869.83 968.049 1830.56 976.459 1857.06Z" fill="#2A9D90"/>
<path d="M976.459 1857.06C976.459 1857.06 1114.16 1878.67 1224.44 2004.59C1224.44 2004.59 1235.27 2018.36 1236.62 2047.99" stroke="black" stroke-miterlimit="10" stroke-linecap="round"/>
<path d="M1074.01 2034.24C1074.01 2034.24 1122.04 2073.51 1226.27 2042.08C1226.27 2042.08 1224.93 2021.99 1185.94 2003.37C1146.95 1984.75 1067.02 2015.74 1074.01 2034.24Z" fill="#2A9D90"/>
<path d="M1074.01 2034.24C1074.01 2034.24 1153.45 1987.42 1226.27 2042.08C1226.27 2042.08 1233.54 2048.64 1236.81 2073.14" stroke="black" stroke-miterlimit="10" stroke-linecap="round"/>
<path d="M1476.11 1827.75C1476.11 1827.75 1425.64 1963.56 1249.88 2024.53C1249.88 2024.53 1243.82 1947.87 1304.6 1892.03C1365.39 1836.19 1484.52 1801.26 1476.11 1827.75Z" fill="#2A9D90"/>
<path d="M1476.11 1827.75C1476.11 1827.75 1347.85 1855.17 1249.88 2024.53C1249.88 2024.53 1238.63 2044.9 1237.29 2074.52" stroke="black" stroke-miterlimit="10" stroke-linecap="round"/>
<path d="M1206.53 1849.16C1206.53 1849.16 1191.75 1873.2 1133.52 1865.71C1075.28 1858.22 1012.31 1789 972.994 1801.56C972.994 1801.56 1069.69 1766.9 1206.53 1849.16Z" fill="#2A9D90"/>
<path d="M1247.1 2179C1232.68 2058.43 1226.55 1913.41 1243.43 1756.82C1243.43 1756.82 1245.67 1715.29 1268.09 1594.55" stroke="black" stroke-miterlimit="10" stroke-linecap="round"/>
<path d="M985.013 1798.44C985.013 1798.44 1082.79 1774.73 1206.53 1849.16C1236.51 1867.19 1235.15 1901.18 1233.24 1927.67" stroke="black" stroke-miterlimit="10" stroke-linecap="round"/>
<path d="M1124.81 2129.13L1158.71 2337.85C1158.71 2350.65 1194.88 2361.01 1239.5 2361.01C1284.11 2361.01 1320.29 2350.64 1320.29 2337.85L1354.19 2129.13H1124.81Z" fill="#383E64"/>
<path d="M1239.5 2152.29C1302.84 2152.29 1354.19 2141.93 1354.19 2129.14C1354.19 2116.35 1302.84 2105.98 1239.5 2105.98C1176.16 2105.98 1124.81 2116.35 1124.81 2129.14C1124.81 2141.93 1176.16 2152.29 1239.5 2152.29Z" fill="black"/>
<path d="M1394.48 598.101C1375.57 601.915 1355.53 602.615 1334.89 599.489C1258.48 587.912 1198.87 524.658 1191.82 447.696C1182.42 345.124 1264.35 259.215 1365.6 261.976C1453 264.356 1525.31 334.361 1530.34 421.645C1533.29 472.973 1513.4 519.676 1479.93 552.625C1474.86 557.62 1472.5 564.744 1473.68 571.77L1486.11 645.325L1409.46 600.665L1409.22 601.076L1409.46 600.665C1404.94 598.033 1399.61 597.06 1394.48 598.101ZM1394.48 598.101L1394.57 598.591L1394.47 598.101C1394.48 598.101 1394.48 598.101 1394.48 598.101Z" fill="#FFFBFA" stroke="black"/>
<path d="M1356.19 507.727C1353.83 507.727 1352.03 506.979 1350.77 505.489C1349.52 503.999 1348.89 501.921 1348.89 499.25C1348.89 496.739 1349.56 494.698 1350.89 493.13C1352.22 491.563 1353.99 490.774 1356.19 490.774C1358.69 490.774 1360.54 491.522 1361.72 493.012C1362.9 494.507 1363.49 496.585 1363.49 499.25C1363.49 501.607 1362.86 503.607 1361.6 505.257C1360.34 506.902 1358.54 507.727 1356.19 507.727ZM1354.74 449.093C1354.56 444.231 1354.38 439.245 1354.2 434.14C1354.02 429.041 1353.89 423.937 1353.8 418.832C1353.71 413.733 1353.75 408.51 1353.93 403.173V341.008H1359.84L1360.11 403.173C1360.11 408.51 1360.07 413.733 1359.98 418.832C1359.88 423.937 1359.75 429.041 1359.58 434.14C1359.39 439.245 1359.21 444.231 1359.03 449.093H1354.74Z" fill="#1E1E1E"/>
<path d="M685.949 1218.39V1205.71H687.235L695.534 1216.69L695.281 1217.01C695.244 1216.82 695.214 1216.53 695.19 1216.14C695.178 1215.76 695.16 1215.32 695.136 1214.84C695.124 1214.34 695.112 1213.83 695.099 1213.3C695.087 1212.77 695.075 1212.25 695.063 1211.74C695.063 1211.23 695.063 1210.77 695.063 1210.36V1205.71H696.477V1218.39H695.154L686.891 1207.55L687.109 1207.17C687.145 1207.66 687.175 1208.13 687.199 1208.61C687.235 1209.08 687.26 1209.53 687.272 1209.96C687.296 1210.4 687.314 1210.8 687.326 1211.16C687.338 1211.52 687.344 1211.83 687.344 1212.08C687.356 1212.34 687.362 1212.52 687.362 1212.63V1218.39H685.949ZM703.853 1218.57C702.911 1218.57 702.072 1218.36 701.335 1217.94C700.61 1217.51 700.036 1216.93 699.613 1216.18C699.203 1215.43 698.997 1214.58 698.997 1213.62C698.997 1212.68 699.203 1211.84 699.613 1211.11C700.036 1210.37 700.61 1209.79 701.335 1209.37C702.072 1208.94 702.911 1208.73 703.853 1208.73C704.783 1208.73 705.611 1208.94 706.336 1209.37C707.073 1209.79 707.646 1210.37 708.057 1211.11C708.48 1211.84 708.691 1212.68 708.691 1213.62C708.691 1214.58 708.48 1215.43 708.057 1216.18C707.646 1216.93 707.073 1217.51 706.336 1217.94C705.611 1218.36 704.783 1218.57 703.853 1218.57ZM703.853 1217.29C704.518 1217.29 705.11 1217.13 705.629 1216.81C706.149 1216.49 706.553 1216.05 706.843 1215.51C707.133 1214.95 707.278 1214.33 707.278 1213.62C707.278 1212.92 707.133 1212.3 706.843 1211.76C706.553 1211.22 706.149 1210.79 705.629 1210.49C705.11 1210.18 704.518 1210.02 703.853 1210.02C703.189 1210.02 702.591 1210.18 702.059 1210.49C701.54 1210.79 701.129 1211.22 700.827 1211.78C700.537 1212.32 700.398 1212.94 700.411 1213.62C700.398 1214.33 700.537 1214.95 700.827 1215.51C701.129 1216.05 701.54 1216.49 702.059 1216.81C702.591 1217.13 703.189 1217.29 703.853 1217.29ZM716.296 1218.39V1205.71H721.08C721.949 1205.71 722.741 1205.86 723.453 1206.18C724.178 1206.48 724.806 1206.91 725.338 1207.48C725.869 1208.05 726.28 1208.72 726.57 1209.49C726.86 1210.27 727.005 1211.12 727.005 1212.05C727.005 1212.98 726.86 1213.84 726.57 1214.62C726.28 1215.39 725.869 1216.07 725.338 1216.63C724.818 1217.19 724.196 1217.62 723.472 1217.94C722.747 1218.24 721.949 1218.39 721.08 1218.39H716.296ZM717.709 1217.27L717.546 1217.01H720.989C721.654 1217.01 722.264 1216.9 722.819 1216.67C723.387 1216.43 723.87 1216.09 724.269 1215.65C724.68 1215.21 724.994 1214.68 725.211 1214.08C725.441 1213.47 725.555 1212.8 725.555 1212.05C725.555 1211.3 725.441 1210.62 725.211 1210.02C724.994 1209.42 724.68 1208.9 724.269 1208.46C723.858 1208.01 723.375 1207.68 722.819 1207.45C722.264 1207.2 721.654 1207.08 720.989 1207.08H717.492L717.709 1206.87V1217.27ZM732.915 1218.57C732.094 1218.57 731.351 1218.36 730.686 1217.94C730.022 1217.5 729.496 1216.92 729.11 1216.18C728.723 1215.43 728.53 1214.59 728.53 1213.64C728.53 1212.69 728.729 1211.84 729.128 1211.11C729.527 1210.37 730.058 1209.79 730.722 1209.37C731.399 1208.94 732.154 1208.73 732.987 1208.73C733.483 1208.73 733.942 1208.81 734.365 1208.95C734.787 1209.1 735.162 1209.3 735.488 1209.57C735.826 1209.82 736.104 1210.12 736.321 1210.47C736.551 1210.81 736.708 1211.18 736.793 1211.58L736.394 1211.38L736.448 1208.93H737.807V1218.39H736.43V1216.07L736.793 1215.84C736.708 1216.2 736.545 1216.55 736.303 1216.89C736.062 1217.21 735.766 1217.5 735.415 1217.76C735.077 1218.01 734.691 1218.21 734.256 1218.35C733.833 1218.5 733.386 1218.57 732.915 1218.57ZM733.223 1217.27C733.851 1217.27 734.413 1217.12 734.908 1216.81C735.403 1216.5 735.79 1216.07 736.068 1215.53C736.358 1214.97 736.503 1214.34 736.503 1213.64C736.503 1212.94 736.358 1212.32 736.068 1211.78C735.79 1211.23 735.403 1210.8 734.908 1210.49C734.413 1210.18 733.851 1210.02 733.223 1210.02C732.583 1210.02 732.015 1210.18 731.52 1210.49C731.037 1210.8 730.65 1211.23 730.36 1211.78C730.082 1212.32 729.943 1212.94 729.943 1213.64C729.943 1214.33 730.082 1214.95 730.36 1215.51C730.638 1216.05 731.024 1216.48 731.52 1216.8C732.015 1217.11 732.583 1217.27 733.223 1217.27ZM741.76 1218.39V1206.45H743.119V1218.39H741.76ZM739.621 1210.24V1208.93H745.51V1210.24H739.621ZM750.787 1218.57C749.966 1218.57 749.223 1218.36 748.558 1217.94C747.894 1217.5 747.368 1216.92 746.982 1216.18C746.595 1215.43 746.402 1214.59 746.402 1213.64C746.402 1212.69 746.601 1211.84 747 1211.11C747.399 1210.37 747.93 1209.79 748.595 1209.37C749.271 1208.94 750.026 1208.73 750.859 1208.73C751.355 1208.73 751.814 1208.81 752.237 1208.95C752.659 1209.1 753.034 1209.3 753.36 1209.57C753.698 1209.82 753.976 1210.12 754.194 1210.47C754.423 1210.81 754.58 1211.18 754.665 1211.58L754.266 1211.38L754.32 1208.93H755.679V1218.39H754.302V1216.07L754.665 1215.84C754.58 1216.2 754.417 1216.55 754.175 1216.89C753.934 1217.21 753.638 1217.5 753.288 1217.76C752.949 1218.01 752.563 1218.21 752.128 1218.35C751.705 1218.5 751.258 1218.57 750.787 1218.57ZM751.095 1217.27C751.723 1217.27 752.285 1217.12 752.78 1216.81C753.275 1216.5 753.662 1216.07 753.94 1215.53C754.23 1214.97 754.375 1214.34 754.375 1213.64C754.375 1212.94 754.23 1212.32 753.94 1211.78C753.662 1211.23 753.275 1210.8 752.78 1210.49C752.285 1210.18 751.723 1210.02 751.095 1210.02C750.455 1210.02 749.887 1210.18 749.392 1210.49C748.909 1210.8 748.522 1211.23 748.232 1211.78C747.954 1212.32 747.815 1212.94 747.815 1213.64C747.815 1214.33 747.954 1214.95 748.232 1215.51C748.51 1216.05 748.897 1216.48 749.392 1216.8C749.887 1217.11 750.455 1217.27 751.095 1217.27Z" fill="black"/>
</svg>
